<?xml version="1.0" encoding="UTF-8" standalone="no"?><!DOCTYPE svg PUBLIC "-//W3C//DTD SVG 1.1//EN" "http://www.w3.org/Graphics/SVG/1.1/DTD/svg11.dtd"><svg width="100%" height="100%" viewBox="0 0 512 512" version="1.1" xmlns="http://www.w3.org/2000/svg" xmlns:xlink="http://www.w3.org/1999/xlink" xml:space="preserve" xmlns:serif="http://www.serif.com/" style="fill-rule:evenodd;clip-rule:evenodd;stroke-linejoin:round;stroke-miterlimit:2;"><rect x="0" y="0" width="512" height="512" style="fill:#181b1a;"/><g id="A-White" serif:id="A White"><path d="M304.889,121.8l0,-2.745l39.166,0l0,2.745c-17.529,4.246 -21.237,18.214 -21.237,18.214l-6.847,0c-0,0 4.667,-14.242 -11.082,-18.214Z" style="fill:#fff;"/><path d="M344.055,390.2l0,2.745l-39.166,-0l0,-2.745c17.529,-4.246 21.238,-18.214 21.238,-18.214l6.847,-0c0,-0 -4.667,14.242 11.081,18.214Z" style="fill:#fff;"/><path d="M70.166,121.8l0,-2.745l-39.166,0l0,2.745c15.338,1.501 19.343,18.208 19.343,18.208l10.956,-0c-0,-0 -5.375,-16.57 8.867,-18.208Z" style="fill:#fff;"/><path d="M207.111,121.8l-0,-2.745l-39.166,0l-0,2.745c15.337,1.501 19.343,18.208 19.343,18.208l10.956,-0c-0,-0 -5.375,-16.57 8.867,-18.208Z" style="fill:#fff;"/><path d="M441.834,390.2l-0,2.745l39.166,-0l-0,-2.745c-15.338,-1.501 -19.343,-18.208 -19.343,-18.208l-10.956,0c0,0 5.375,16.57 -8.867,18.208Z" style="fill:#fff;"/><path d="M45.105,119.055l10.956,0l65.014,260.058l21.518,-88.877l6.847,0l-24.907,102.709l-10.955,-0l-68.473,-273.89Z" style="fill:#fff;"/><path d="M182.05,119.055l10.955,0l65.015,260.058l21.517,-88.877l6.848,0l-24.907,102.709l-10.956,-0l-68.472,-273.89Z" style="fill:#fff;"/><path d="M466.895,392.945l-10.956,-0l-65.014,-260.058l-21.541,88.877l-6.847,-0l24.93,-102.709l10.955,0l68.473,273.89Z" style="fill:#fff;"/></g></svg>