<?xml version="1.0" encoding="UTF-8" standalone="no"?><!DOCTYPE svg PUBLIC "-//W3C//DTD SVG 1.1//EN" "http://www.w3.org/Graphics/SVG/1.1/DTD/svg11.dtd"><svg width="100%" height="100%" viewBox="0 0 512 512" version="1.1" xmlns="http://www.w3.org/2000/svg" xmlns:xlink="http://www.w3.org/1999/xlink" xml:space="preserve" xmlns:serif="http://www.serif.com/" style="fill-rule:evenodd;clip-rule:evenodd;stroke-linejoin:round;stroke-miterlimit:2;"><g id="A-White" serif:id="A White"><path d="M311.625,103.311l0,-3.124l44.562,0l0,3.124c-19.944,4.83 -24.163,20.723 -24.163,20.723l-7.791,-0c0,-0 5.311,-16.205 -12.608,-20.723Z"/><path d="M356.187,408.689l0,3.124l-44.562,-0l0,-3.124c19.944,-4.83 24.164,-20.723 24.164,-20.723l7.79,0c0,0 -5.31,16.205 12.608,20.723Z"/><path d="M44.562,103.311l0,-3.124l-44.562,0l0,3.124c17.451,1.707 22.009,20.716 22.009,20.716l12.465,-0c-0,-0 -6.116,-18.854 10.088,-20.716Z"/><path d="M200.375,103.311l-0,-3.124l-44.562,0l-0,3.124c17.451,1.707 22.008,20.716 22.008,20.716l12.465,-0c0,-0 -6.116,-18.854 10.089,-20.716Z"/><path d="M467.438,408.689l-0,3.124l44.562,-0l0,-3.124c-17.451,-1.707 -22.009,-20.716 -22.009,-20.716l-12.465,0c0,0 6.116,18.854 -10.088,20.716Z"/><path d="M16.049,100.187l12.465,0l73.972,295.888l24.482,-101.122l7.79,0l-28.338,116.86l-12.465,-0l-77.906,-311.626Z"/><path d="M171.861,100.187l12.465,0l73.972,295.888l24.482,-101.122l7.791,0l-28.338,116.86l-12.466,-0l-77.906,-311.626Z"/><path d="M495.951,411.813l-12.465,-0l-73.972,-295.888l-24.508,101.122l-7.791,-0l28.365,-116.86l12.465,0l77.906,311.626Z"/></g></svg>