<svg width="100%" height="100%" viewBox="0 0 3286 2000" version="1.1" xmlns="http://www.w3.org/2000/svg" xmlns:xlink="http://www.w3.org/1999/xlink" xml:space="preserve" xmlns:serif="http://www.serif.com/" style="fill-rule:evenodd;clip-rule:evenodd;stroke-linejoin:round;stroke-miterlimit:2;"><g id="A-White" serif:id="A White"><path d="M2000,20.045l0,-20.045l286,0l0,20.045c-128,31 -155.082,133 -155.082,133l-50,-0c0,-0 34.082,-104 -80.918,-133Z" style="fill:#fff;"/><path d="M2286,1979.96l0,20.045l-286,0l0,-20.045c128,-31 155.082,-133 155.082,-133l50,0c-0,0 -34.082,104 80.918,133Z" style="fill:#fff;"/><path d="M286,20.045l0,-20.045l-286,0l0,20.045c112,10.955 141.25,132.955 141.25,132.955l80,0c0,0 -39.25,-121 64.75,-132.955Z" style="fill:#fff;"/><path d="M1286,20.045l0,-20.045l-286,0l0,20.045c112,10.955 141.25,132.955 141.25,132.955l80,0c0,0 -39.25,-121 64.75,-132.955Z" style="fill:#fff;"/><path d="M3000,1979.96l0,20.045l286,0l0,-20.045c-112,-10.955 -141.25,-132.955 -141.25,-132.955l-80,0c0,0 39.25,121 -64.75,132.955Z" style="fill:#fff;"/><path d="M103,0l80,0l474.75,1899l157.125,-649l50,0l-181.875,750l-80,0l-500,-2000Z" style="fill:#fff;"/><path d="M1103,0l80,0l474.75,1899l157.125,-649l50,0l-181.875,750l-80,0l-500,-2000Z" style="fill:#fff;"/><path d="M3183,2000l-80,0l-474.75,-1899l-157.294,649l-50,0l182.044,-750l80,0l500,2000Z" style="fill:#fff;"/></g></svg>